<?xml version="1.0" encoding="UTF-8"?>
<svg xmlns="http://www.w3.org/2000/svg" xmlns:xlink="http://www.w3.org/1999/xlink" width="16pt" height="16pt" viewBox="0 0 16 16" version="1.1">
<g id="surface1">
<path style=" stroke:none;fill-rule:nonzero;fill:rgb(0%,0%,0%);fill-opacity:1;" d="M 16 3.539062 C 15.414062 3.800781 14.777344 3.976562 14.117188 4.054688 C 14.792969 3.648438 15.3125 3.003906 15.558594 2.238281 C 14.925781 2.613281 14.222656 2.886719 13.476562 3.035156 C 12.875 2.398438 12.023438 2 11.078125 2 C 9.265625 2 7.796875 3.46875 7.796875 5.28125 C 7.796875 5.539062 7.824219 5.789062 7.882812 6.027344 C 5.152344 5.890625 2.734375 4.585938 1.117188 2.597656 C 0.835938 3.082031 0.671875 3.648438 0.671875 4.246094 C 0.671875 5.382812 1.25 6.390625 2.132812 6.976562 C 1.59375 6.960938 1.085938 6.8125 0.644531 6.570312 C 0.644531 6.582031 0.644531 6.597656 0.644531 6.609375 C 0.644531 8.199219 1.773438 9.527344 3.277344 9.828125 C 3.003906 9.902344 2.710938 9.945312 2.414062 9.945312 C 2.199219 9.945312 1.996094 9.921875 1.792969 9.882812 C 2.210938 11.1875 3.425781 12.136719 4.859375 12.164062 C 3.734375 13.046875 2.320312 13.570312 0.78125 13.570312 C 0.515625 13.570312 0.257812 13.554688 -0.00390625 13.523438 C 1.453125 14.460938 3.179688 15 5.03125 15 C 11.070312 15 14.371094 9.996094 14.371094 5.660156 C 14.371094 5.515625 14.367188 5.375 14.363281 5.234375 C 15.003906 4.773438 15.558594 4.195312 16 3.539062 Z M 16 3.539062 "/>
</g>
</svg>
