<?xml version="1.0" encoding="UTF-8"?>
<svg xmlns="http://www.w3.org/2000/svg" xmlns:xlink="http://www.w3.org/1999/xlink" width="16pt" height="16pt" viewBox="0 0 16 16" version="1.1">
<g id="surface1">
<path style=" stroke:none;fill-rule:nonzero;fill:rgb(0%,0%,0%);fill-opacity:1;" d="M 15.839844 4.800781 C 15.839844 4.800781 15.683594 3.695312 15.203125 3.210938 C 14.59375 2.574219 13.914062 2.570312 13.601562 2.535156 C 11.363281 2.371094 8.003906 2.371094 8.003906 2.371094 L 7.996094 2.371094 C 7.996094 2.371094 4.636719 2.371094 2.398438 2.535156 C 2.085938 2.570312 1.40625 2.574219 0.796875 3.210938 C 0.316406 3.695312 0.164062 4.800781 0.164062 4.800781 C 0.164062 4.800781 0.00390625 6.09375 0.00390625 7.390625 L 0.00390625 8.601562 C 0.00390625 9.898438 0.164062 11.195312 0.164062 11.195312 C 0.164062 11.195312 0.320312 12.296875 0.796875 12.78125 C 1.40625 13.417969 2.207031 13.398438 2.5625 13.464844 C 3.84375 13.585938 8.003906 13.625 8.003906 13.625 C 8.003906 13.625 11.367188 13.617188 13.601562 13.460938 C 13.914062 13.421875 14.597656 13.417969 15.207031 12.78125 C 15.6875 12.296875 15.84375 11.195312 15.84375 11.195312 C 15.84375 11.195312 16.003906 9.898438 16.003906 8.601562 L 16.003906 7.390625 C 16 6.097656 15.839844 4.800781 15.839844 4.800781 Z M 6.347656 10.074219 L 6.347656 5.578125 L 10.667969 7.835938 Z M 6.347656 10.074219 "/>
</g>
</svg>
