<?xml version="1.0" encoding="UTF-8"?>
<svg xmlns="http://www.w3.org/2000/svg" xmlns:xlink="http://www.w3.org/1999/xlink" width="16pt" height="16pt" viewBox="0 0 16 16" version="1.1">
<g id="surface1">
<path style=" stroke:none;fill-rule:nonzero;fill:rgb(0%,0%,0%);fill-opacity:1;" d="M 8 1.070312 C 4.171875 1.070312 1.070312 4.171875 1.070312 8 C 1.070312 10.9375 2.898438 13.445312 5.476562 14.453125 C 5.414062 13.90625 5.359375 13.0625 5.5 12.464844 C 5.625 11.925781 6.3125 9.023438 6.3125 9.023438 C 6.3125 9.023438 6.105469 8.605469 6.105469 7.992188 C 6.105469 7.03125 6.664062 6.308594 7.359375 6.308594 C 7.949219 6.308594 8.238281 6.753906 8.238281 7.285156 C 8.238281 7.878906 7.859375 8.769531 7.664062 9.589844 C 7.496094 10.28125 8.007812 10.84375 8.6875 10.84375 C 9.917969 10.84375 10.867188 9.542969 10.867188 7.667969 C 10.867188 6.007812 9.671875 4.851562 7.972656 4.851562 C 6 4.851562 4.84375 6.328125 4.84375 7.859375 C 4.84375 8.457031 5.070312 9.09375 5.359375 9.441406 C 5.414062 9.507812 5.425781 9.570312 5.40625 9.640625 C 5.351562 9.859375 5.238281 10.332031 5.210938 10.429688 C 5.179688 10.554688 5.113281 10.582031 4.980469 10.523438 C 4.117188 10.117188 3.574219 8.851562 3.574219 7.835938 C 3.574219 5.648438 5.164062 3.644531 8.152344 3.644531 C 10.554688 3.644531 12.425781 5.355469 12.425781 7.648438 C 12.425781 10.035156 10.917969 11.960938 8.828125 11.960938 C 8.125 11.960938 7.464844 11.59375 7.242188 11.164062 C 7.242188 11.164062 6.894531 12.484375 6.808594 12.808594 C 6.652344 13.414062 6.230469 14.164062 5.945312 14.625 C 6.597656 14.824219 7.285156 14.933594 8 14.933594 C 11.828125 14.933594 14.929688 11.832031 14.929688 8.003906 C 14.929688 4.171875 11.828125 1.070312 8 1.070312 Z M 8 1.070312 "/>
</g>
</svg>
