<?xml version="1.0" encoding="UTF-8"?>
<svg xmlns="http://www.w3.org/2000/svg" xmlns:xlink="http://www.w3.org/1999/xlink" width="16pt" height="16pt" viewBox="0 0 16 16" version="1.1">
<g id="surface1">
<path style=" stroke:none;fill-rule:nonzero;fill:rgb(0%,0%,0%);fill-opacity:1;" d="M 8 1.441406 C 10.136719 1.441406 10.390625 1.449219 11.230469 1.488281 C 12.011719 1.523438 12.433594 1.652344 12.714844 1.761719 C 13.085938 1.90625 13.355469 2.082031 13.632812 2.359375 C 13.914062 2.640625 14.085938 2.90625 14.234375 3.277344 C 14.34375 3.558594 14.476562 3.984375 14.507812 4.761719 C 14.546875 5.605469 14.554688 5.859375 14.554688 7.992188 C 14.554688 10.128906 14.546875 10.382812 14.507812 11.226562 C 14.476562 12.007812 14.34375 12.429688 14.234375 12.710938 C 14.089844 13.082031 13.914062 13.351562 13.636719 13.628906 C 13.355469 13.910156 13.089844 14.082031 12.71875 14.226562 C 12.4375 14.335938 12.011719 14.46875 11.234375 14.503906 C 10.390625 14.539062 10.136719 14.550781 8.003906 14.550781 C 5.867188 14.550781 5.613281 14.539062 4.773438 14.503906 C 3.992188 14.46875 3.570312 14.335938 3.289062 14.226562 C 2.914062 14.085938 2.648438 13.910156 2.367188 13.632812 C 2.085938 13.351562 1.914062 13.085938 1.769531 12.710938 C 1.660156 12.429688 1.527344 12.007812 1.492188 11.226562 C 1.457031 10.382812 1.445312 10.132812 1.445312 7.996094 C 1.445312 5.863281 1.457031 5.605469 1.492188 4.765625 C 1.527344 3.984375 1.660156 3.5625 1.769531 3.28125 C 1.914062 2.910156 2.085938 2.640625 2.367188 2.363281 C 2.648438 2.082031 2.914062 1.910156 3.285156 1.761719 C 3.566406 1.652344 3.992188 1.523438 4.769531 1.488281 C 5.609375 1.449219 5.863281 1.441406 8 1.441406 Z M 8 0 C 5.828125 0 5.554688 0.0078125 4.703125 0.046875 C 3.851562 0.0859375 3.269531 0.222656 2.761719 0.417969 C 2.234375 0.625 1.789062 0.898438 1.34375 1.34375 C 0.898438 1.789062 0.625 2.234375 0.417969 2.757812 C 0.222656 3.269531 0.0859375 3.851562 0.046875 4.699219 C 0.0078125 5.554688 0 5.828125 0 8 C 0 10.171875 0.0078125 10.445312 0.046875 11.296875 C 0.0859375 12.148438 0.222656 12.730469 0.417969 13.238281 C 0.625 13.765625 0.898438 14.210938 1.34375 14.65625 C 1.789062 15.101562 2.234375 15.375 2.757812 15.578125 C 3.269531 15.773438 3.851562 15.914062 4.699219 15.949219 C 5.554688 15.988281 5.824219 15.996094 7.996094 15.996094 C 10.167969 15.996094 10.441406 15.988281 11.292969 15.949219 C 12.144531 15.914062 12.726562 15.773438 13.234375 15.578125 C 13.757812 15.375 14.207031 15.101562 14.648438 14.65625 C 15.09375 14.210938 15.367188 13.765625 15.570312 13.242188 C 15.769531 12.730469 15.90625 12.148438 15.945312 11.300781 C 15.980469 10.445312 15.992188 10.175781 15.992188 8.003906 C 15.992188 5.832031 15.980469 5.558594 15.945312 4.707031 C 15.90625 3.855469 15.769531 3.273438 15.570312 2.765625 C 15.375 2.234375 15.101562 1.789062 14.65625 1.34375 C 14.210938 0.898438 13.765625 0.625 13.242188 0.421875 C 12.730469 0.226562 12.148438 0.0859375 11.300781 0.0507812 C 10.445312 0.0078125 10.171875 0 8 0 Z M 8 0 "/>
<path style=" stroke:none;fill-rule:nonzero;fill:rgb(0%,0%,0%);fill-opacity:1;" d="M 8 3.890625 C 5.730469 3.890625 3.890625 5.730469 3.890625 8 C 3.890625 10.269531 5.730469 12.109375 8 12.109375 C 10.269531 12.109375 12.109375 10.269531 12.109375 8 C 12.109375 5.730469 10.269531 3.890625 8 3.890625 Z M 8 10.664062 C 6.527344 10.664062 5.335938 9.472656 5.335938 8 C 5.335938 6.527344 6.527344 5.335938 8 5.335938 C 9.472656 5.335938 10.664062 6.527344 10.664062 8 C 10.664062 9.472656 9.472656 10.664062 8 10.664062 Z M 8 10.664062 "/>
<path style=" stroke:none;fill-rule:nonzero;fill:rgb(0%,0%,0%);fill-opacity:1;" d="M 13.230469 3.726562 C 13.230469 4.257812 12.800781 4.6875 12.273438 4.6875 C 11.742188 4.6875 11.3125 4.257812 11.3125 3.726562 C 11.3125 3.199219 11.742188 2.769531 12.273438 2.769531 C 12.800781 2.769531 13.230469 3.199219 13.230469 3.726562 Z M 13.230469 3.726562 "/>
</g>
</svg>
