<?xml version="1.0" encoding="UTF-8"?>
<svg xmlns="http://www.w3.org/2000/svg" xmlns:xlink="http://www.w3.org/1999/xlink" width="16pt" height="16pt" viewBox="0 0 16 16" version="1.1">
<g id="surface1">
<path style=" stroke:none;fill-rule:nonzero;fill:rgb(0%,0%,0%);fill-opacity:1;" d="M 14.5 0 L 1.5 0 C 0.675781 0 0 0.675781 0 1.5 L 0 14.5 C 0 15.324219 0.675781 16 1.5 16 L 14.5 16 C 15.324219 16 16 15.324219 16 14.5 L 16 1.5 C 16 0.675781 15.324219 0 14.5 0 Z M 6 13 L 4 13 L 4 6 L 6 6 Z M 5 5 C 4.445312 5 4 4.554688 4 4 C 4 3.445312 4.445312 3 5 3 C 5.554688 3 6 3.445312 6 4 C 6 4.554688 5.554688 5 5 5 Z M 13 13 L 11 13 L 11 9 C 11 8.445312 10.554688 8 10 8 C 9.445312 8 9 8.445312 9 9 L 9 13 L 7 13 L 7 6 L 9 6 L 9 7.242188 C 9.414062 6.675781 10.042969 6 10.75 6 C 11.992188 6 13 7.117188 13 8.5 Z M 13 13 "/>
</g>
</svg>
