<?xml version="1.0" encoding="UTF-8"?>
<svg xmlns="http://www.w3.org/2000/svg" xmlns:xlink="http://www.w3.org/1999/xlink" width="25pt" height="25pt" viewBox="0 0 25 25" version="1.1">
<g id="surface1">
<path style=" stroke:none;fill-rule:nonzero;fill:rgb(0%,0%,0%);fill-opacity:1;" d="M 10.9375 3.125 L 10.9375 2.734375 C 10.9375 2.089844 10.410156 1.5625 9.765625 1.5625 L 5.859375 1.5625 C 5.214844 1.5625 4.6875 2.089844 4.6875 2.734375 L 4.6875 3.125 L 0 3.125 L 0 6.25 L 4.6875 6.25 L 4.6875 6.640625 C 4.6875 7.285156 5.214844 7.8125 5.859375 7.8125 L 9.765625 7.8125 C 10.410156 7.8125 10.9375 7.285156 10.9375 6.640625 L 10.9375 6.25 L 25 6.25 L 25 3.125 Z M 6.25 6.25 L 6.25 3.125 L 9.375 3.125 L 9.375 6.25 Z M 20.3125 10.546875 C 20.3125 9.902344 19.785156 9.375 19.140625 9.375 L 15.234375 9.375 C 14.589844 9.375 14.0625 9.902344 14.0625 10.546875 L 14.0625 10.9375 L 0 10.9375 L 0 14.0625 L 14.0625 14.0625 L 14.0625 14.453125 C 14.0625 15.097656 14.589844 15.625 15.234375 15.625 L 19.140625 15.625 C 19.785156 15.625 20.3125 15.097656 20.3125 14.453125 L 20.3125 14.0625 L 25 14.0625 L 25 10.9375 L 20.3125 10.9375 Z M 15.625 14.0625 L 15.625 10.9375 L 18.75 10.9375 L 18.75 14.0625 Z M 10.9375 18.359375 C 10.9375 17.714844 10.410156 17.1875 9.765625 17.1875 L 5.859375 17.1875 C 5.214844 17.1875 4.6875 17.714844 4.6875 18.359375 L 4.6875 18.75 L 0 18.75 L 0 21.875 L 4.6875 21.875 L 4.6875 22.265625 C 4.6875 22.910156 5.214844 23.4375 5.859375 23.4375 L 9.765625 23.4375 C 10.410156 23.4375 10.9375 22.910156 10.9375 22.265625 L 10.9375 21.875 L 25 21.875 L 25 18.75 L 10.9375 18.75 Z M 6.25 21.875 L 6.25 18.75 L 9.375 18.75 L 9.375 21.875 Z M 6.25 21.875 "/>
</g>
</svg>
