<?xml version="1.0" encoding="UTF-8"?>
<svg xmlns="http://www.w3.org/2000/svg" xmlns:xlink="http://www.w3.org/1999/xlink" width="25pt" height="25pt" viewBox="0 0 25 25" version="1.1">
<g id="surface1">
<path style=" stroke:none;fill-rule:nonzero;fill:rgb(0%,0%,0%);fill-opacity:1;" d="M 18.75 17.1875 L 16.273438 17.1875 L 12.367188 13.28125 L 16.273438 9.375 L 18.75 9.375 L 18.75 13.28125 L 24.21875 7.8125 L 18.75 2.34375 L 18.75 6.25 L 15.625 6.25 C 15.210938 6.25 14.8125 6.414062 14.519531 6.707031 L 10.15625 11.070312 L 5.792969 6.707031 C 5.5 6.414062 5.101562 6.25 4.6875 6.25 L 0 6.25 L 0 9.375 L 4.039062 9.375 L 7.945312 13.28125 L 4.039062 17.1875 L 0 17.1875 L 0 20.3125 L 4.6875 20.3125 C 5.101562 20.3125 5.5 20.148438 5.792969 19.855469 L 10.15625 15.492188 L 14.519531 19.855469 C 14.8125 20.148438 15.210938 20.3125 15.625 20.3125 L 18.75 20.3125 L 18.75 24.21875 L 24.21875 18.75 L 18.75 13.28125 Z M 18.75 17.1875 "/>
</g>
</svg>
