<?xml version="1.0" encoding="UTF-8"?>
<svg xmlns="http://www.w3.org/2000/svg" xmlns:xlink="http://www.w3.org/1999/xlink" width="25pt" height="25pt" viewBox="0 0 25 25" version="1.1">
<g id="surface1">
<path style=" stroke:none;fill-rule:nonzero;fill:rgb(0%,0%,0%);fill-opacity:1;" d="M 9.375 22.65625 C 9.375 23.949219 8.324219 25 7.03125 25 C 5.738281 25 4.6875 23.949219 4.6875 22.65625 C 4.6875 21.363281 5.738281 20.3125 7.03125 20.3125 C 8.324219 20.3125 9.375 21.363281 9.375 22.65625 Z M 9.375 22.65625 "/>
<path style=" stroke:none;fill-rule:nonzero;fill:rgb(0%,0%,0%);fill-opacity:1;" d="M 25 22.65625 C 25 23.949219 23.949219 25 22.65625 25 C 21.363281 25 20.3125 23.949219 20.3125 22.65625 C 20.3125 21.363281 21.363281 20.3125 22.65625 20.3125 C 23.949219 20.3125 25 21.363281 25 22.65625 Z M 25 22.65625 "/>
<path style=" stroke:none;fill-rule:nonzero;fill:rgb(0%,0%,0%);fill-opacity:1;" d="M 25 12.5 L 25 3.125 L 6.25 3.125 C 6.25 2.261719 5.550781 1.5625 4.6875 1.5625 L 0 1.5625 L 0 3.125 L 3.125 3.125 L 4.300781 13.1875 C 3.585938 13.757812 3.125 14.636719 3.125 15.625 C 3.125 17.351562 4.523438 18.75 6.25 18.75 L 25 18.75 L 25 17.1875 L 6.25 17.1875 C 5.386719 17.1875 4.6875 16.488281 4.6875 15.625 C 4.6875 15.621094 4.6875 15.613281 4.6875 15.609375 Z M 25 12.5 "/>
</g>
</svg>
