<?xml version="1.0" encoding="UTF-8"?>
<svg xmlns="http://www.w3.org/2000/svg" xmlns:xlink="http://www.w3.org/1999/xlink" width="25pt" height="25pt" viewBox="0 0 25 25" version="1.1">
<g id="surface1">
<path style=" stroke:none;fill-rule:nonzero;fill:rgb(0%,0%,0%);fill-opacity:1;" d="M 19.140625 18.359375 C 17.574219 18.359375 16.105469 17.75 14.996094 16.644531 L 12.5 14.148438 L 10.003906 16.644531 C 8.894531 17.75 7.425781 18.359375 5.859375 18.359375 C 4.292969 18.359375 2.824219 17.75 1.714844 16.644531 C 0.609375 15.535156 0 14.066406 0 12.5 C 0 10.933594 0.609375 9.464844 1.714844 8.355469 C 2.824219 7.25 4.292969 6.640625 5.859375 6.640625 C 7.425781 6.640625 8.894531 7.25 10.003906 8.355469 L 12.5 10.855469 L 14.996094 8.355469 C 16.101562 7.25 17.574219 6.640625 19.140625 6.640625 C 20.703125 6.640625 22.175781 7.25 23.285156 8.355469 C 24.390625 9.464844 25 10.933594 25 12.5 C 25 14.066406 24.390625 15.535156 23.285156 16.644531 C 22.175781 17.75 20.707031 18.359375 19.140625 18.359375 Z M 16.644531 14.996094 C 17.3125 15.664062 18.195312 16.03125 19.140625 16.03125 C 20.082031 16.03125 20.96875 15.664062 21.636719 14.996094 C 22.304688 14.332031 22.671875 13.441406 22.671875 12.5 C 22.671875 11.558594 22.304688 10.671875 21.636719 10.003906 C 20.96875 9.335938 20.082031 8.96875 19.140625 8.96875 C 18.195312 8.96875 17.3125 9.335938 16.644531 10.003906 L 14.148438 12.5 Z M 5.859375 8.96875 C 4.917969 8.96875 4.03125 9.335938 3.363281 10.003906 C 2.695312 10.671875 2.328125 11.558594 2.328125 12.5 C 2.328125 13.445312 2.695312 14.328125 3.363281 14.996094 C 4.03125 15.664062 4.917969 16.03125 5.859375 16.03125 C 6.804688 16.03125 7.691406 15.664062 8.355469 14.996094 L 10.855469 12.5 L 8.355469 10.003906 C 7.691406 9.335938 6.804688 8.96875 5.859375 8.96875 Z M 5.859375 8.96875 "/>
</g>
</svg>
